# File created by Blade
# Date/Time:  Thu Sep 25 18:48:06 2014
# Frame Rate: 120.000 fps
#------------------------------------------------------
:FULLY-SPECIFIED
:DEGREES
2342
root 1.007743 32.884354 1.287706 4.453329 5.475682 0.204441
Spine -3.362456 3.354149 2.844104
Head -16.534605 -3.083074 0.263274
LeftShoulder -15.405646 22.106180 20.644818
LeftArm 22.060554 -7.372998 -41.099197
LeftForeArm 12.088430 -0.000000 24.575011
LeftHand -31.679415 -0.000000 1.864580
LeftHandThumb1 -26.253704 0.000000 33.147579
RightShoulder -20.548063 9.646810 -35.735340
RightArm -13.124566 6.657165 33.777929
RightForeArm -31.605030 -0.000000 26.547405
RightHand -15.752854 0.000000 -0.704890
RightHandThumb1 -24.326973 -0.000000 -32.862282
LeftUpLeg -0.432735 5.871519 4.207679
LeftLeg 0.154785 -0.000000 -0.000000
LeftFoot -8.697221 1.088773 -13.533703
LeftToeBase 11.692724 -0.000000 -0.000000
RightUpLeg 0.776849 -11.915996 -5.740673
RightLeg 2.712882 -0.000000 -0.000000
RightFoot -7.987094 -6.441077 6.177178
RightToeBase 1.353313 -0.000000 -0.000000
2343
root 1.004596 32.892989 1.266468 4.572893 5.237875 0.204852
Spine -3.451332 3.393051 2.864281
Head -16.704100 -2.691371 0.408747
LeftShoulder -15.395130 21.839827 21.183249
LeftArm 21.999265 -7.648144 -40.463092
LeftForeArm 12.052061 -0.000000 24.307178
LeftHand -31.875063 -0.000000 2.348434
LeftHandThumb1 -26.253704 0.000000 33.147579
RightShoulder -20.550052 9.883602 -35.991914
RightArm -12.774461 6.649967 33.089751
RightForeArm -31.698975 -0.000000 26.281303
RightHand -15.785858 0.000000 -0.650362
RightHandThumb1 -24.326973 -0.000000 -32.862282
LeftUpLeg -0.519820 5.801596 4.181731
LeftLeg 0.086595 -0.000000 -0.000000
LeftFoot -8.648555 1.374373 -13.636406
LeftToeBase 11.695671 -0.000000 -0.000000
RightUpLeg 0.570346 -11.876816 -5.723015
RightLeg 2.708290 -0.000000 -0.000000
RightFoot -7.898943 -6.306548 6.169437
RightToeBase 1.456359 -0.000000 -0.000000
2344
root 1.002235 32.901258 1.238795 4.733149 4.959969 0.195951
Spine -3.575364 3.465857 2.896933
Head -16.854791 -2.326180 0.508198
LeftShoulder -15.462945 21.772194 21.643478
LeftArm 22.095793 -8.094369 -39.925450
LeftForeArm 12.347271 -0.000000 24.078339
LeftHand -31.844692 -0.000000 2.780617
LeftHandThumb1 -26.253704 0.000000 33.147579
RightShoulder -20.556073 10.139431 -36.298374
RightArm -12.429925 6.733814 32.479246
RightForeArm -31.920178 0.000000 26.003471
RightHand -15.890078 -0.000000 -0.729626
RightHandThumb1 -24.326973 -0.000000 -32.862282
LeftUpLeg -0.693431 5.908859 4.151120
LeftLeg 0.104874 -0.000000 -0.000000
LeftFoot -8.628179 1.553338 -13.678999
LeftToeBase 11.748635 -0.000000 -0.000000
RightUpLeg 0.268466 -11.810585 -5.682754
RightLeg 2.764845 -0.000000 -0.000000
RightFoot -7.792190 -6.159724 6.090239
RightToeBase 1.427296 -0.000000 -0.000000
2345
root 0.996713 32.909801 1.209569 4.884342 4.704828 0.192221
Spine -3.684576 3.555317 2.911384
Head -16.996480 -2.012995 0.633993
LeftShoulder -15.435314 21.577389 22.157295
LeftArm 22.071347 -8.339387 -39.327667
LeftForeArm 12.603008 -0.000000 23.793465
LeftHand -32.065372 -0.000000 2.745785
LeftHandThumb1 -26.253704 0.000000 33.147579
RightShoulder -20.534922 10.337696 -36.589979
RightArm -12.157692 7.098263 31.879719
RightForeArm -32.296084 -0.000000 25.751053
RightHand -15.869561 -0.000000 -0.697358
RightHandThumb1 -24.326973 -0.000000 -32.862282
LeftUpLeg -0.876319 5.989849 4.120467
LeftLeg 0.142806 -0.000000 -0.000000
LeftFoot -8.624306 1.743730 -13.721285
LeftToeBase 11.853690 -0.000000 -0.000000
RightUpLeg -0.002452 -11.793743 -5.646205
RightLeg 2.781502 -0.000000 -0.000000
RightFoot -7.673736 -5.967949 6.022812
RightToeBase 1.435211 -0.000000 -0.000000
2346
root 0.992576 32.918666 1.192134 5.001680 4.422930 0.175315
Spine -3.786415 3.640285 2.956903
Head -17.106977 -1.681219 0.702380
LeftShoulder -15.407941 21.243386 22.670201
LeftArm 21.866049 -8.627024 -38.826774
LeftForeArm 13.055366 -0.000000 23.670853
LeftHand -32.272556 -0.000000 2.464828
LeftHandThumb1 -26.253704 0.000000 33.147579
RightShoulder -20.529546 10.632570 -36.929716
RightArm -11.888538 7.225376 31.316562
RightForeArm -32.530347 -0.000000 25.435945
RightHand -15.907719 0.000000 -0.839393
RightHandThumb1 -24.326973 -0.000000 -32.862282
LeftUpLeg -0.975321 6.118581 4.113275
LeftLeg 0.123624 -0.000000 -0.000000
LeftFoot -8.557366 1.865995 -13.760894
LeftToeBase 11.824288 -0.000000 -0.000000
RightUpLeg -0.197504 -11.774799 -5.607767
RightLeg 2.737081 -0.000000 -0.000000
RightFoot -7.512980 -5.776250 5.940998
RightToeBase 1.363337 -0.000000 -0.000000
2347
root 0.988560 32.926693 1.170482 5.126987 4.160986 0.154295
Spine -3.882854 3.716680 3.003842
Head -17.241823 -1.394191 0.758871
LeftShoulder -15.393815 20.987592 23.125787
LeftArm 21.744620 -8.924397 -38.310768
LeftForeArm 13.400266 0.000000 23.438100
LeftHand -32.370065 -0.000000 2.672449
LeftHandThumb1 -26.253704 0.000000 33.147579
RightShoulder -20.554095 10.985300 -37.297365
RightArm -11.625125 7.277946 30.789279
RightForeArm -32.711195 -0.000000 25.102426
RightHand -16.021635 0.000000 -0.816868
RightHandThumb1 -24.326973 -0.000000 -32.862282
LeftUpLeg -1.098748 6.192787 4.107240
LeftLeg 0.124947 -0.000000 -0.000000
LeftFoot -8.531714 2.034664 -13.838667
LeftToeBase 11.827143 -0.000000 -0.000000
RightUpLeg -0.394176 -11.825951 -5.561400
RightLeg 2.671556 -0.000000 -0.000000
RightFoot -7.325578 -5.536406 5.823552
RightToeBase 1.311345 -0.000000 -0.000000
2348
root 0.990217 32.935806 1.147428 5.295118 3.897385 0.167858
Spine -4.038152 3.820369 3.016667
Head -17.333139 -1.155689 0.786549
LeftShoulder -15.403244 20.805125 23.513864
LeftArm 21.682129 -9.370534 -37.852675
LeftForeArm 13.854144 -0.000000 23.258672
LeftHand -32.413006 -0.000000 2.716267
LeftHandThumb1 -26.253704 0.000000 33.147579
RightShoulder -20.611526 11.251172 -37.611493
RightArm -11.274532 7.379303 30.233454
RightForeArm -32.894195 -0.000000 24.686260
RightHand -15.962245 -0.000000 -0.753359
RightHandThumb1 -24.326973 -0.000000 -32.862282
LeftUpLeg -1.264269 6.255799 4.049035
LeftLeg 0.122798 -0.000000 -0.000000
LeftFoot -8.495134 2.232615 -13.899282
LeftToeBase 11.846262 -0.000000 -0.000000
RightUpLeg -0.627551 -11.838139 -5.546062
RightLeg 2.594231 -0.000000 -0.000000
RightFoot -7.155199 -5.346037 5.726954
RightToeBase 1.271922 -0.000000 -0.000000
2349
root 0.986003 32.944155 1.126406 5.442652 3.656164 0.140014
Spine -4.164768 3.888435 3.073168
Head -17.440540 -0.886388 0.791014
LeftShoulder -15.442664 20.555132 23.875031
LeftArm 21.579860 -9.832188 -37.431363
LeftForeArm 14.172283 0.000000 23.115332
LeftHand -32.513599 -0.000000 2.565938
LeftHandThumb1 -26.253704 0.000000 33.147579
RightShoulder -20.672220 11.577633 -37.959076
RightArm -10.951003 7.293579 29.750926
RightForeArm -32.939705 -0.000000 24.256481
RightHand -16.160069 -0.000000 -0.843486
RightHandThumb1 -24.326973 -0.000000 -32.862282
LeftUpLeg -1.413573 6.315747 4.053104
LeftLeg 0.123823 -0.000000 -0.000000
LeftFoot -8.416663 2.346127 -14.157925
LeftToeBase 11.614011 -0.000000 -0.000000
RightUpLeg -0.846426 -11.828200 -5.494923
RightLeg 2.549622 -0.000000 -0.000000
RightFoot -7.019748 -5.122314 5.730561
RightToeBase 1.337800 -0.000000 -0.000000
2350
root 0.986508 32.951721 1.107377 5.574732 3.413672 0.149768
Spine -4.265123 3.956891 3.086609
Head -17.557414 -0.612465 0.786595
LeftShoulder -15.486081 20.235847 24.204387
LeftArm 21.434374 -10.391246 -37.057519
LeftForeArm 14.547442 -0.000000 22.976425
LeftHand -32.493827 -0.000000 2.827441
LeftHandThumb1 -26.253704 0.000000 33.147579
RightShoulder -20.707308 11.944030 -38.326938
RightArm -10.722308 7.355970 29.278812
RightForeArm -33.079759 0.000000 23.790383
RightHand -16.110165 -0.000000 -0.668335
RightHandThumb1 -24.326973 -0.000000 -32.862282
LeftUpLeg -1.533874 6.357744 4.009626
LeftLeg 0.112824 -0.000000 -0.000000
LeftFoot -8.424873 2.556857 -14.143937
LeftToeBase 11.780999 -0.000000 -0.000000
RightUpLeg -0.989566 -11.883917 -5.484647
RightLeg 2.382812 -0.000000 -0.000000
RightFoot -6.819418 -4.897110 5.647083
RightToeBase 1.309436 -0.000000 -0.000000
2351
root 0.984565 32.959067 1.088974 5.696020 3.196523 0.148500
Spine -4.353278 4.052351 3.100277
Head -17.681348 -0.389135 0.806218
LeftShoulder -15.532958 20.002464 24.487023
LeftArm 21.419706 -11.202545 -36.796186
LeftForeArm 15.015853 0.000000 22.869814
LeftHand -32.726815 0.000000 2.659568
LeftHandThumb1 -26.253704 0.000000 33.147579
RightShoulder -20.742651 12.201947 -38.622998
RightArm -10.488508 7.433676 28.794120
RightForeArm -33.157069 -0.000000 23.343363
RightHand -16.206573 -0.000000 -0.429133
RightHandThumb1 -24.326973 -0.000000 -32.862282
LeftUpLeg -1.646525 6.384778 3.986556
LeftLeg 0.097686 -0.000000 -0.000000
LeftFoot -8.375650 2.715594 -14.314290
LeftToeBase 11.734182 -0.000000 -0.000000
RightUpLeg -1.144176 -11.926581 -5.463140
RightLeg 2.278733 -0.000000 -0.000000
RightFoot -6.655968 -4.680480 5.584037
RightToeBase 1.282488 -0.000000 -0.000000
2352
root 0.982044 32.965614 1.072632 5.827247 2.997209 0.150940
Spine -4.459528 4.158688 3.097722
Head -17.817307 -0.202954 0.837721
LeftShoulder -15.510712 19.662352 24.781338
LeftArm 21.274493 -11.945780 -36.504774
LeftForeArm 15.413491 -0.000000 22.769994
LeftHand -32.690740 0.000000 2.576848
LeftHandThumb1 -26.253704 0.000000 33.147579
RightShoulder -20.885472 12.443015 -38.936742
RightArm -10.128648 7.393758 28.386295
RightForeArm -33.120549 -0.000000 22.756413
RightHand -16.177187 0.000000 -0.253127
RightHandThumb1 -24.326973 -0.000000 -32.862282
LeftUpLeg -1.760269 6.408958 3.962228
LeftLeg 0.070508 -0.000000 -0.000000
LeftFoot -8.337257 2.863463 -14.396420
LeftToeBase 11.673926 -0.000000 -0.000000
RightUpLeg -1.296231 -12.004604 -5.440628
RightLeg 2.163791 -0.000000 -0.000000
RightFoot -6.487397 -4.442943 5.507919
RightToeBase 1.232175 -0.000000 -0.000000
2353
root 0.976916 32.971488 1.057436 5.939654 2.798132 0.149684
Spine -4.537856 4.242055 3.093727
Head -17.952940 -0.013840 0.843000
LeftShoulder -15.548708 19.431524 24.931224
LeftArm 21.210482 -12.737861 -36.100731
LeftForeArm 15.676886 0.000000 22.651600
LeftHand -32.766597 0.000000 2.592284
LeftHandThumb1 -26.253704 0.000000 33.147579
RightShoulder -20.948542 12.703505 -39.210887
RightArm -9.874287 7.440206 27.955803
RightForeArm -33.169548 -0.000000 22.172752
RightHand -16.056290 0.000000 0.122082
RightHandThumb1 -24.326973 -0.000000 -32.862282
LeftUpLeg -1.848397 6.463311 3.944706
LeftLeg 0.030784 -0.000000 -0.000000
LeftFoot -8.329998 3.022024 -14.338582
LeftToeBase 11.874259 -0.000000 -0.000000
RightUpLeg -1.409882 -12.014753 -5.413096
RightLeg 2.011933 -0.000000 -0.000000
RightFoot -6.339329 -4.277747 5.495660
RightToeBase 1.274603 -0.000000 -0.000000
